<svg id="Layer_1" data-name="Layer 1" xmlns="http://www.w3.org/2000/svg" viewBox="0 0 595.28 841.89"><defs><style>.cls-1{fill:#dfedf1;stroke:#231f20;stroke-miterlimit:10;}.cls-2{font-size:61.56px;}.cls-14,.cls-2{fill:#01a4d6;}.cls-14,.cls-16,.cls-18,.cls-2,.cls-9{font-family:SegoePrint-Bold, Segoe Print;font-weight:700;}.cls-3,.cls-7{letter-spacing:0em;}.cls-3,.cls-4,.cls-5{fill:#000;}.cls-4{letter-spacing:-0.06em;}.cls-6{letter-spacing:-0.06em;}.cls-8{letter-spacing:-0.01em;}.cls-14,.cls-9{font-size:60px;}.cls-16,.cls-18,.cls-9{fill:#231f20;}.cls-10{letter-spacing:-0.02em;}.cls-11{letter-spacing:0em;}.cls-12{letter-spacing:-0.07em;}.cls-13{letter-spacing:0.01em;}.cls-15{letter-spacing:-0.06em;}.cls-16{font-size:48px;}.cls-17{letter-spacing:0.04em;}.cls-18{font-size:24px;}</style></defs><title>Artboard 1</title><rect class="cls-1" width="595.28" height="841.89"/><text class="cls-2" transform="translate(29.99 117.83) scale(1.12 1)"><tspan xml:space="preserve">   </tspan><tspan class="cls-3" x="73.85" y="0">Thank </tspan><tspan class="cls-4" x="291.1" y="0">Y</tspan><tspan class="cls-5" x="328.67" y="0">ou</tspan><tspan x="0" y="73.87">For </tspan><tspan class="cls-6" x="126.9" y="73.87">Y</tspan><tspan class="cls-7" x="164.47" y="73.87">our </tspan><tspan class="cls-8" x="292.42" y="73.87">O</tspan><tspan x="341.17" y="73.87">rder!</tspan></text><text class="cls-9" transform="translate(59.09 311.21)"><tspan class="cls-10">W</tspan><tspan x="59.47" y="0">e A</tspan><tspan class="cls-11" x="161.07" y="0">r</tspan><tspan x="191.81" y="0">e G</tspan><tspan class="cls-11" x="293.32" y="0">r</tspan><tspan x="324.05" y="0">eatful</tspan><tspan class="cls-12" x="0" y="72">T</tspan><tspan x="36.09" y="72">o Have Such A</tspan><tspan x="0" y="144" xml:space="preserve"> Customer </tspan><tspan class="cls-13" x="334.98" y="144">L</tspan><tspan x="373.21" y="144">ike </tspan><tspan x="0" y="216" xml:space="preserve">        </tspan></text><text class="cls-14" transform="translate(251.05 527.21) scale(1.12 1)"><tspan class="cls-15">Y</tspan><tspan x="36.62" y="0">ou.</tspan></text><text class="cls-16" transform="translate(45.14 663.53) scale(1.12 1)">Fashion Ma<tspan class="cls-17" x="271.83" y="0">r</tspan><tspan x="298.29" y="0">t Mall</tspan></text><text class="cls-18" transform="translate(18.3 822.39) scale(1.12 1)">fm.mall_0104</text><text class="cls-18" transform="translate(390.42 826.64) scale(1.12 1)">7600083038</text></svg>